<?xml version="1.0" standalone="no"?>
<!DOCTYPE svg PUBLIC "-//W3C//DTD SVG 20010904//EN"
 "http://www.w3.org/TR/2001/REC-SVG-20010904/DTD/svg10.dtd">
<svg version="1.0" xmlns="http://www.w3.org/2000/svg"
 width="1731.000000pt" height="1084.000000pt" viewBox="0 0 1731.000000 1084.000000"
 preserveAspectRatio="xMidYMid meet">

<g transform="translate(0.000000,1084.000000) scale(0.100000,-0.100000)"
fill="#FF0000" stroke="none">
<path d="M3300 5538 c1 -3911 3 -5218 12 -5203 33 59 486 846 615 1070 82 143
347 602 588 1020 241 418 531 922 645 1120 115 198 325 563 468 810 142 248
304 529 360 625 703 1220 951 1645 957 1643 7 -1 71 -110 477 -813 365 -631
352 -611 365 -594 6 8 193 330 415 715 221 384 405 699 408 699 3 0 30 -44 61
-98 226 -395 763 -1322 765 -1320 2 3 282 488 645 1115 95 167 176 303 179
303 5 0 42 -64 521 -897 162 -282 296 -512 299 -513 3 0 37 55 76 123 39 67
218 379 399 692 180 314 334 576 340 583 9 10 42 -38 155 -235 78 -136 173
-300 210 -363 37 -63 424 -734 860 -1490 436 -756 797 -1379 801 -1384 5 -6 9
1654 9 3802 l0 3812 -5315 0 -5315 0 0 -5222z m5705 4553 c124 -31 309 -114
321 -145 2 -7 3 -96 2 -199 l-3 -187 -89 64 c-158 113 -279 162 -421 173 -129
9 -237 -23 -309 -93 -48 -46 -67 -85 -73 -150 -8 -78 26 -141 130 -240 78 -75
118 -104 401 -289 345 -226 451 -379 463 -670 8 -203 -40 -338 -168 -464 -150
-149 -330 -210 -584 -198 -195 10 -362 66 -512 173 l-63 45 0 230 0 230 78
-79 c165 -168 288 -238 460 -262 151 -20 313 25 382 108 66 79 77 218 27 318
-37 74 -122 146 -344 295 -512 342 -603 455 -603 742 0 172 53 308 164 421
103 104 239 171 396 195 89 14 249 5 345 -18z m-4643 -828 c3 -749 5 -812 22
-863 52 -160 220 -305 411 -356 94 -25 304 -30 406 -9 192 39 345 142 423 286
56 103 56 96 56 956 l1 793 174 0 175 0 0 -789 c0 -867 -1 -887 -60 -1041 -78
-200 -272 -385 -496 -472 -222 -86 -534 -101 -775 -38 -183 47 -311 122 -450
260 -89 90 -113 120 -147 191 -87 177 -92 235 -92 1157 l0 732 175 0 174 0 3
-807z m3478 652 l0 -155 -495 0 -495 0 0 -335 0 -335 480 0 480 0 0 -160 0
-160 -480 0 -480 0 0 -520 0 -520 -175 0 -175 0 0 1170 0 1170 670 0 670 0 0
-155z m2320 -962 c0 -1122 -7 -1428 -35 -1558 -36 -170 -138 -302 -287 -373
-111 -53 -171 -66 -312 -67 l-119 0 -37 153 c-25 103 -34 155 -26 157 6 2 58
6 116 8 189 9 277 62 322 194 l23 68 3 1268 3 1267 174 0 175 0 0 -1117z"/>
<path d="M6335 5252 c-336 -581 -714 -1236 -841 -1457 -127 -220 -316 -548
-421 -730 -296 -514 -1112 -1931 -1406 -2440 l-265 -460 731 -3 c402 -1 734 1
738 5 7 7 221 378 1531 2648 248 429 490 848 538 930 48 83 234 406 414 718
l328 568 -64 112 c-194 336 -671 1162 -672 1164 -1 1 -276 -474 -611 -1055z"/>
<path d="M8361 5878 c-135 -233 -299 -518 -367 -635 l-122 -211 360 -624 c197
-343 362 -626 366 -630 7 -7 735 1247 735 1266 0 13 -716 1256 -723 1256 -3 0
-115 -190 -249 -422z"/>
<path d="M9896 5679 c-197 -341 -359 -626 -360 -632 -2 -19 717 -1258 725
-1250 13 14 712 1227 716 1244 4 15 -705 1259 -717 1259 -3 0 -167 -279 -364
-621z"/>
<path d="M11887 6279 c-29 -46 -687 -1188 -698 -1212 -9 -20 -5 -32 22 -78 17
-30 107 -184 199 -344 92 -159 387 -670 655 -1135 1027 -1778 1197 -2072 1523
-2638 l337 -583 3 163 c2 90 0 659 -3 1265 l-7 1103 -287 497 c-158 274 -559
968 -891 1543 -332 575 -653 1131 -713 1235 -60 105 -113 194 -117 199 -4 4
-15 -2 -23 -15z"/>
<path d="M9069 4247 c-200 -348 -364 -639 -363 -647 0 -8 137 -251 303 -540
421 -727 412 -713 421 -704 4 5 144 245 310 534 167 289 330 571 362 627 l60
103 -25 42 c-13 24 -160 279 -327 568 -166 289 -319 553 -339 587 l-37 62
-365 -632z"/>
<path d="M11067 4858 c-8 -12 -133 -228 -277 -478 -145 -250 -302 -524 -351
-607 l-88 -153 68 -117 c205 -354 1026 -1777 1439 -2493 261 -454 480 -831
486 -838 9 -9 165 -12 737 -10 l726 3 -459 795 c-253 437 -528 914 -612 1060
-84 146 -406 704 -716 1240 -310 536 -646 1119 -747 1295 -102 176 -186 322
-188 323 -2 2 -10 -7 -18 -20z"/>
<path d="M7570 4508 c-112 -194 -336 -582 -498 -863 -162 -280 -386 -667 -497
-860 -111 -192 -473 -820 -805 -1395 -332 -575 -627 -1085 -656 -1135 l-52
-90 726 -3 c399 -1 729 1 733 5 4 5 123 208 264 453 142 245 366 634 500 865
133 231 462 800 730 1264 300 520 485 850 482 861 -5 21 -694 1219 -712 1238
-9 10 -53 -59 -215 -340z"/>
<path d="M9886 2815 l-367 -637 402 -696 c221 -383 484 -838 583 -1009 l181
-313 739 0 738 0 -14 22 c-8 13 -228 392 -488 843 -506 878 -975 1690 -1232
2135 -88 151 -163 279 -167 283 -4 4 -173 -278 -375 -628z"/>
<path d="M8323 2957 c-380 -661 -1571 -2725 -1595 -2764 l-20 -33 729 0 728 0
280 486 c154 268 314 545 356 618 42 72 178 307 302 523 l226 392 -360 623
c-197 343 -362 624 -367 625 -4 1 -129 -210 -279 -470z"/>
<path d="M9288 1778 c-483 -835 -928 -1607 -928 -1612 0 -3 479 -6 1065 -6
586 0 1065 2 1065 4 0 2 -140 246 -311 542 -171 297 -408 708 -527 914 -118
206 -218 379 -222 383 -4 5 -68 -97 -142 -225z"/>
</g>
</svg>
